# This file uses centimeters as units for non-parametric coordinates.

mtllib Orb.mtl
g default
v -0.254629 1.623314 2.214516
v -0.254630 1.114055 2.214516
v -0.321614 1.690298 2.469146
v 0.321614 1.368683 2.147531
v -0.321614 1.368683 2.147533
v -0.000000 1.368684 2.908383
v 0.000001 1.807921 2.469147
v -0.000000 1.368684 2.029910
v 0.000000 0.929448 2.469147
v 0.439236 1.368684 2.469147
v 0.321615 1.368684 2.790761
v -0.439236 1.368684 2.469147
v 0.000000 1.047069 2.790761
v -0.000000 1.690299 2.790761
v -0.254630 1.623314 2.723776
v -0.321615 1.368684 2.790761
v 0.254630 1.623314 2.723776
v 0.321615 1.690299 2.469147
v 0.254630 1.623314 2.214517
v 0.000000 1.690299 2.147532
v 0.254630 1.114054 2.214517
v 0.000000 1.047069 2.147532
v 0.321615 1.047069 2.469147
v 0.254630 1.114054 2.723776
v -0.254630 1.114054 2.723776
v -0.321615 1.047069 2.469147
vt 0.375000 0.500000
vt 0.125000 0.250000
vt 0.875000 0.250000
vt 0.375000 0.750000
vt 0.125000 0.000000
vt 0.875000 0.000000
vt 0.375000 0.375000
vt 0.250000 0.250000
vt 0.625000 0.625000
vt 0.875000 0.125000
vt 0.375000 0.625000
vt 0.125000 0.125000
vt 0.500000 0.125000
vt 0.500000 0.375000
vt 0.500000 0.625000
vt 0.500000 0.875000
vt 0.750000 0.125000
vt 0.625000 0.125000
vt 0.250000 0.125000
vt 0.500000 0.000000
vt 0.500000 1.000000
vt 0.500000 0.250000
vt 0.375000 0.250000
vt 0.375000 0.125000
vt 0.625000 0.250000
vt 0.625000 0.250000
vt 0.625000 0.375000
vt 0.750000 0.250000
vt 0.625000 0.500000
vt 0.500000 0.500000
vt 0.625000 0.750000
vt 0.500000 0.750000
vt 0.625000 0.875000
vt 0.750000 0.000000
vt 0.625000 1.000000
vt 0.625000 0.000000
vt 0.375000 1.000000
vt 0.375000 0.000000
vt 0.375000 0.875000
vt 0.250000 0.000000
vn -0.577350 -0.577350 0.577350
vn 0.000000 -0.707107 0.707107
vn -0.000000 -0.000000 1.000000
vn -0.707107 0.000000 0.707107
vn 0.577350 -0.577350 0.577350
vn 0.707107 0.000000 0.707107
vn 0.577351 0.577349 0.577351
vn -0.000001 0.707107 0.707107
vn -0.577351 0.577351 0.577349
vn 0.000000 1.000000 0.000001
vn -0.707107 0.707106 -0.000001
vn 0.707108 0.707106 -0.000001
vn 0.577351 0.577350 -0.577350
vn -0.000000 0.707107 -0.707107
vn -0.577350 0.577350 -0.577351
vn -0.000000 0.000000 -1.000000
vn -0.707107 0.000000 -0.707106
vn 0.707106 -0.000000 -0.707107
vn 0.577350 -0.577351 -0.577350
vn -0.000001 -0.707107 -0.707106
vn -0.577351 -0.577349 -0.577351
vn -0.000000 -1.000000 -0.000000
vn -0.707106 -0.707107 -0.000000
vn 0.707107 -0.707107 -0.000000
vn 1.000000 0.000000 -0.000001
vn -1.000000 0.000001 -0.000000
s 1
g pCube1
usemtl initialShadingGroup
f 25/38/1 13/20/2 6/13/3 16/24/4
f 13/20/2 24/36/5 11/18/6 6/13/3
f 6/13/3 11/18/6 17/25/7 14/22/8
f 16/24/4 6/13/3 14/22/8 15/23/9
f 15/23/9 14/22/8 7/14/10 3/7/11
f 14/22/8 17/25/7 18/27/12 7/14/10
f 7/14/10 18/27/12 19/29/13 20/30/14
f 3/7/11 7/14/10 20/30/14 1/1/15
f 1/1/15 20/30/14 8/15/16 5/11/17
f 20/30/14 19/29/13 4/9/18 8/15/16
f 8/15/16 4/9/18 21/31/19 22/32/20
f 5/11/17 8/15/16 22/32/20 2/4/21
f 2/4/21 22/32/20 9/16/22 26/39/23
f 22/32/20 21/31/19 23/33/24 9/16/22
f 9/16/22 23/33/24 24/35/5 13/21/2
f 26/39/23 9/16/22 13/21/2 25/37/1
f 24/36/5 23/34/24 10/17/25 11/18/6
f 23/34/24 21/6/19 4/10/18 10/17/25
f 10/17/25 4/10/18 19/3/13 18/28/12
f 11/18/6 10/17/25 18/28/12 17/26/7
f 2/5/21 26/40/23 12/19/26 5/12/17
f 26/40/23 25/38/1 16/24/4 12/19/26
f 12/19/26 16/24/4 15/23/9 3/8/11
f 5/12/17 12/19/26 3/8/11 1/2/15
