# File produced by Open Asset Import Library (http://www.assimp.sf.net)
# (assimp v3.1.151580502)

mtllib 3.mtl

# 24 vertex positions
v  6.84096 0.201427 -0.866025
v  6.69096 0 -0.606218
v  6.69096 0 0.606218
v  6.84096 0.201427 0.866026
v  5.34096 0.201427 0
v  5.64096 0 0
v  6.99096 0 -1.12583
v  6.99096 0 1.12583
v  5.04096 0 0
v  6.84096 -0.201427 -0.866025
v  6.84096 -0.201427 0.866025
v  5.34096 -0.201427 0
v  5.12443 0.201427 0.866025
v  5.27443 0 0.606218
v  5.27443 0 -0.606218
v  5.12443 0.201427 -0.866026
v  6.62443 0.201427 0
v  6.32443 0 0
v  4.97443 0 1.12583
v  4.97443 0 -1.12583
v  6.92443 0 0
v  5.12443 -0.201427 0.866025
v  5.12443 -0.201427 -0.866025
v  6.62443 -0.201427 0

# 20 UV coordinates
vt 0.333333 0.75 0
vt 0.333333 1 0
vt 0 1 0
vt 0 0.75 0
vt 0.666667 0.75 0
vt 0.666667 1 0
vt 1 0.75 0
vt 1 1 0
vt 0.333333 0.5 0
vt 0 0.5 0
vt 0.666667 0.5 0
vt 1 0.5 0
vt 0.333333 0.25 0
vt 0 0.25 0
vt 0.666667 0.25 0
vt 1 0.25 0
vt 0.333333 0 0
vt 0 0 0
vt 0.666667 0 0
vt 1 0 0

# 16 vertex normals
vn -0.802042 0.597268 0
vn 0.401021 0.597268 0.694588
vn 0.401021 0.597268 -0.694588
vn 0.802041 0.597268 0
vn 0.802042 0.597268 0
vn -0.401021 0.597268 -0.694589
vn -0.401021 0.597268 0.694588
vn 0.802042 -0.597268 0
vn -0.401021 -0.597268 -0.694588
vn -0.401021 -0.597268 0.694588
vn -0.802041 -0.597269 0
vn 0.401021 -0.597268 0.694588
vn 0.401021 -0.597268 -0.694588
vn -0.401021 0.597268 -0.694588
vn 0.401021 0.597269 0.694588
vn -0.802041 -0.597268 -0

# Mesh 'g polySurface1_polySurface1' with 48 faces
g g polySurface1_polySurface1
usemtl initialShadingGroup
f  1/1/1 2/2/1 3/3/1
f  3/3/1 4/4/1 1/1/1
f  5/5/2 6/6/2 2/2/2
f  2/2/2 1/1/2 5/5/2
f  4/7/3 3/8/3 6/6/3
f  6/6/3 5/5/3 4/7/3
f  7/9/4 1/1/5 4/4/5
f  4/4/5 8/10/4 7/9/4
f  9/11/6 5/5/6 1/1/6
f  1/1/6 7/9/6 9/11/6
f  8/12/7 4/7/7 5/5/7
f  5/5/7 9/11/7 8/12/7
f  10/13/8 7/9/8 8/10/8
f  8/10/8 11/14/8 10/13/8
f  12/15/9 9/11/9 7/9/9
f  7/9/9 10/13/9 12/15/9
f  11/16/10 8/12/10 9/11/10
f  9/11/10 12/15/10 11/16/10
f  2/17/11 10/13/11 11/14/11
f  11/14/11 3/18/11 2/17/11
f  6/19/12 12/15/12 10/13/12
f  10/13/12 2/17/12 6/19/12
f  3/20/13 11/16/13 12/15/13
f  12/15/13 6/19/13 3/20/13
f  13/1/5 14/2/5 15/3/5
f  15/3/5 16/4/5 13/1/5
f  17/5/14 18/6/14 14/2/14
f  14/2/14 13/1/14 17/5/14
f  16/7/7 15/8/7 18/6/7
f  18/6/7 17/5/7 16/7/7
f  19/9/1 13/1/1 16/4/1
f  16/4/1 20/10/1 19/9/1
f  21/11/2 17/5/15 13/1/15
f  13/1/15 19/9/15 21/11/2
f  20/12/3 16/7/3 17/5/3
f  17/5/3 21/11/3 20/12/3
f  22/13/16 19/9/16 20/10/16
f  20/10/16 23/14/16 22/13/16
f  24/15/12 21/11/12 19/9/12
f  19/9/12 22/13/12 24/15/12
f  23/16/13 20/12/13 21/11/13
f  21/11/13 24/15/13 23/16/13
f  14/17/8 22/13/8 23/14/8
f  23/14/8 15/18/8 14/17/8
f  18/19/9 24/15/9 22/13/9
f  22/13/9 14/17/9 18/19/9
f  15/20/10 23/16/10 24/15/10
f  24/15/10 18/19/10 15/20/10

